<svg width="16" height="17" viewBox="0 0 16 17" fill="none" xmlns="http://www.w3.org/2000/svg">
<g clip-path="url(#clip0_138_223)">
<path d="M8 0.811523C4.6916 0.811523 2 3.42928 2 6.64692C2 10.3547 4.4738 12.5917 6.1145 14.0722C6.6365 14.5656 7.3211 14.8115 8.0042 14.8115C8.6858 14.8115 9.3659 14.5664 9.8804 14.0771C11.5208 12.5967 14 10.3585 14 6.64692C14 3.42928 11.3084 0.811523 8 0.811523ZM8 8.98108C6.6767 8.98108 5.6 7.93392 5.6 6.64692C5.6 5.35993 6.6767 4.31276 8 4.31276C9.3233 4.31276 10.4 5.35993 10.4 6.64692C10.4 7.93392 9.3233 8.98108 8 8.98108Z" fill="#F8BD49"/>
</g>
<defs>
<clipPath id="clip0_138_223">
<rect width="16" height="16" fill="white" transform="translate(0 0.144531)"/>
</clipPath>
</defs>
</svg>
