<svg width="16" height="17" viewBox="0 0 16 17" fill="none" xmlns="http://www.w3.org/2000/svg">
<path d="M11.2928 2.14453C12.1868 2.14453 13.0468 2.49786 13.6795 3.13186C14.3128 3.76453 14.6668 4.61786 14.6668 5.5112V10.7779C14.6668 12.6379 13.1535 14.1445 11.2928 14.1445H4.70683C2.84616 14.1445 1.3335 12.6379 1.3335 10.7779V5.5112C1.3335 3.6512 2.8395 2.14453 4.70683 2.14453H11.2928ZM12.0468 5.6112C11.9068 5.60386 11.7735 5.6512 11.6728 5.74453L8.66683 8.14453C8.28016 8.4652 7.72616 8.4652 7.3335 8.14453L4.3335 5.74453C4.12616 5.5912 3.8395 5.6112 3.66683 5.7912C3.48683 5.9712 3.46683 6.25786 3.6195 6.45786L3.70683 6.54453L6.74016 8.9112C7.1135 9.20453 7.56616 9.36453 8.04016 9.36453C8.51283 9.36453 8.9735 9.20453 9.34616 8.9112L12.3535 6.50453L12.4068 6.4512C12.5662 6.25786 12.5662 5.97786 12.3995 5.78453C12.3068 5.6852 12.1795 5.62453 12.0468 5.6112Z" fill="#F8BD49"/>
</svg>
