<svg width="15" height="15" viewBox="0 0 15 15" fill="none" xmlns="http://www.w3.org/2000/svg">
<path fill-rule="evenodd" clip-rule="evenodd" d="M11.4277 2.6481C11.6935 2.91378 11.9009 3.23203 12.0366 3.58248C12.193 3.99824 12.2765 4.43791 12.2834 4.8821C12.3162 5.44308 12.3162 5.62481 12.3162 7.0568V7.05693C12.3162 8.48903 12.3086 8.66782 12.2834 9.23175C12.2746 9.67024 12.1919 10.1029 12.0377 10.5132C11.9018 10.8636 11.6944 11.1818 11.4286 11.4476C11.1629 11.7134 10.8447 11.9208 10.4943 12.0567C10.084 12.2103 9.65076 12.2934 9.2128 12.3023C8.65297 12.3345 8.46949 12.3345 7.03797 12.3345C5.60646 12.3345 5.42766 12.3269 4.86315 12.3023C4.42429 12.2879 3.99112 12.1987 3.58228 12.0385C3.23177 11.9028 2.91341 11.6956 2.64754 11.4299C2.38167 11.1642 2.17414 10.846 2.03821 10.4956C1.88404 10.0847 1.80139 9.65206 1.79259 9.21358C1.75977 8.65258 1.75977 8.47027 1.75977 7.03875C1.75977 5.60665 1.76739 5.42786 1.79259 4.86393C1.80116 4.42593 1.88422 3.99259 2.03821 3.58248C2.17376 3.23194 2.38109 2.91361 2.64689 2.6479C2.9127 2.3822 3.23111 2.175 3.5817 2.03958C3.99131 1.88517 4.4243 1.80191 4.86197 1.79337C5.4218 1.76172 5.60528 1.76172 7.0368 1.76172C8.46832 1.76172 8.64711 1.76875 9.21163 1.79337C9.64963 1.80237 10.0829 1.88562 10.4931 2.03958C10.8436 2.17515 11.1619 2.38242 11.4277 2.6481ZM11.1403 10.1597C11.2571 9.84272 11.3188 9.50803 11.3226 9.1702V9.17079H11.329C11.3542 8.61037 11.3542 8.45679 11.3542 7.02879C11.3542 5.6002 11.3478 5.44368 11.3226 4.8862C11.3171 4.55216 11.2555 4.22141 11.1403 3.90782C11.0522 3.67983 10.9174 3.47277 10.7445 3.29994C10.5717 3.12711 10.3647 2.99233 10.1367 2.90424C9.82325 2.78762 9.49208 2.72595 9.1577 2.72193C8.59084 2.68968 8.44429 2.68968 7.0157 2.68968C5.58711 2.68968 5.43059 2.69672 4.87311 2.72193C4.53899 2.72659 4.20811 2.78825 3.89473 2.90424C3.43221 3.08127 3.06584 3.4453 2.88704 3.90782C2.77018 4.22462 2.70852 4.55911 2.70473 4.89675C2.67366 5.46479 2.67366 5.61075 2.67366 7.03934C2.67366 8.46734 2.67952 8.62444 2.70473 9.18134C2.71019 9.51538 2.77182 9.84613 2.88704 10.1597C2.97546 10.3881 3.11084 10.5954 3.28443 10.7682C3.45801 10.941 3.66593 11.0754 3.89473 11.1627C4.20796 11.2793 4.53893 11.3409 4.87311 11.345C5.44056 11.3773 5.58653 11.3773 7.0157 11.3773C8.4437 11.3773 8.6008 11.3708 9.1577 11.345C9.49205 11.3407 9.82318 11.279 10.1367 11.1627C10.3647 11.0748 10.5718 10.9402 10.7446 10.7674C10.9174 10.5947 11.0522 10.3877 11.1403 10.1597ZM9.8521 4.8569C10.2011 4.8569 10.484 4.57398 10.484 4.22497C10.484 3.87597 10.2011 3.59304 9.8521 3.59304C9.50309 3.59304 9.22016 3.87597 9.22016 4.22497C9.22016 4.57398 9.50309 4.8569 9.8521 4.8569ZM7.0339 4.32466C6.315 4.32466 5.62554 4.61024 5.1172 5.11858C4.60886 5.62692 4.32328 6.31638 4.32328 7.03528C4.32328 7.75418 4.60886 8.44364 5.1172 8.95198C5.62554 9.46032 6.315 9.7459 7.0339 9.7459C7.7528 9.7459 8.44226 9.46032 8.95059 8.95198C9.45893 8.44364 9.74452 7.75418 9.74452 7.03528C9.74452 6.31638 9.45893 5.62692 8.95059 5.11858C8.44226 4.61024 7.7528 4.32466 7.0339 4.32466ZM7.0339 8.79566C6.56686 8.79566 6.11895 8.61013 5.78871 8.27988C5.45846 7.94964 5.27293 7.50173 5.27293 7.03469C5.27293 6.56765 5.45846 6.11975 5.78871 5.7895C6.11895 5.45926 6.56686 5.27373 7.0339 5.27373C7.50093 5.27373 7.94884 5.45926 8.27909 5.7895C8.60933 6.11975 8.79486 6.56765 8.79486 7.03469C8.79486 7.50173 8.60933 7.94964 8.27909 8.27988C7.94884 8.61013 7.50093 8.79566 7.0339 8.79566Z" fill="white"/>
</svg>
